<svg width="40" height="40" viewBox="0 0 40 40" fill="none" xmlns="http://www.w3.org/2000/svg">
<rect width="40" height="40" rx="5.57143" fill="#0D0D0D"/>
<path d="M14.75 10.9817L25.25 16.99" stroke="white" stroke-width="2.33333" stroke-linecap="round" stroke-linejoin="round"/>
<path d="M30.5 15.3333C30.4996 14.9242 30.3916 14.5223 30.1868 14.168C29.982 13.8138 29.6877 13.5196 29.3333 13.315L21.1667 8.64833C20.812 8.44354 20.4096 8.33572 20 8.33572C19.5904 8.33572 19.188 8.44354 18.8333 8.64833L10.6667 13.315C10.3123 13.5196 10.018 13.8138 9.81321 14.168C9.60843 14.5223 9.50042 14.9242 9.5 15.3333V24.6667C9.50042 25.0758 9.60843 25.4777 9.81321 25.832C10.018 26.1862 10.3123 26.4804 10.6667 26.685L18.8333 31.3517C19.188 31.5565 19.5904 31.6643 20 31.6643C20.4096 31.6643 20.812 31.5565 21.1667 31.3517L29.3333 26.685C29.6877 26.4804 29.982 26.1862 30.1868 25.832C30.3916 25.4777 30.4996 25.0758 30.5 24.6667V15.3333Z" stroke="white" stroke-width="2.33333" stroke-linecap="round" stroke-linejoin="round"/>
<path d="M9.85001 14.1667L20 20L30.15 14.1667" stroke="white" stroke-width="2.33333" stroke-linecap="round" stroke-linejoin="round"/>
<path d="M20 31.6667V20" stroke="white" stroke-width="2.33333" stroke-linecap="round" stroke-linejoin="round"/>
</svg>
