<svg width="227" height="48" viewBox="0 0 227 48" fill="none" xmlns="http://www.w3.org/2000/svg">
<path d="M159.567 41.764C159.567 42.2113 159.464 42.622 159.259 42.996C159.054 43.3627 158.738 43.6597 158.313 43.887C157.888 44.1143 157.36 44.228 156.729 44.228H155.563V47H153.682V39.278H156.729C157.345 39.278 157.866 39.3843 158.291 39.597C158.716 39.8097 159.035 40.103 159.248 40.477C159.461 40.851 159.567 41.28 159.567 41.764ZM156.586 42.732C156.945 42.732 157.213 42.6477 157.389 42.479C157.565 42.3103 157.653 42.072 157.653 41.764C157.653 41.456 157.565 41.2177 157.389 41.049C157.213 40.8803 156.945 40.796 156.586 40.796H155.563V42.732H156.586ZM164.913 45.636H162.031L161.569 47H159.6L162.394 39.278H164.572L167.366 47H165.375L164.913 45.636ZM164.429 44.184L163.472 41.357L162.526 44.184H164.429ZM169.625 39.278V43.898C169.625 44.36 169.738 44.7157 169.966 44.965C170.193 45.2143 170.527 45.339 170.967 45.339C171.407 45.339 171.744 45.2143 171.979 44.965C172.213 44.7157 172.331 44.36 172.331 43.898V39.278H174.212V43.887C174.212 44.5763 174.065 45.1593 173.772 45.636C173.478 46.1127 173.082 46.472 172.584 46.714C172.092 46.956 171.542 47.077 170.934 47.077C170.325 47.077 169.779 46.9597 169.295 46.725C168.818 46.483 168.44 46.1237 168.162 45.647C167.883 45.163 167.744 44.5763 167.744 43.887V39.278H169.625ZM176.973 45.548H179.437V47H175.092V39.278H176.973V45.548ZM188.474 39.278V47H186.593V43.821H183.667V47H181.786V39.278H183.667V42.303H186.593V39.278H188.474ZM194.199 45.636H191.317L190.855 47H188.886L191.68 39.278H193.858L196.652 47H194.661L194.199 45.636ZM193.715 44.184L192.758 41.357L191.812 44.184H193.715ZM198.943 45.548H201.407V47H197.062V39.278H198.943V45.548ZM203.745 45.548H206.209V47H201.864V39.278H203.745V45.548ZM208.547 40.785V42.347H211.066V43.799H208.547V45.493H211.396V47H206.666V39.278H211.396V40.785H208.547ZM214.026 39.278V43.898C214.026 44.36 214.139 44.7157 214.367 44.965C214.594 45.2143 214.928 45.339 215.368 45.339C215.808 45.339 216.145 45.2143 216.38 44.965C216.614 44.7157 216.732 44.36 216.732 43.898V39.278H218.613V43.887C218.613 44.5763 218.466 45.1593 218.173 45.636C217.879 46.1127 217.483 46.472 216.985 46.714C216.493 46.956 215.943 47.077 215.335 47.077C214.726 47.077 214.18 46.9597 213.696 46.725C213.219 46.483 212.841 46.1237 212.563 45.647C212.284 45.163 212.145 44.5763 212.145 43.887V39.278H214.026ZM224.223 47L222.65 44.635L221.264 47H219.13L221.605 43.073L219.075 39.278H221.264L222.815 41.61L224.179 39.278H226.313L223.86 43.172L226.412 47H224.223Z" fill="black"/>
<path d="M77.112 3.496V8.92H68.184V37H61.464V8.92H52.536V3.496H77.112ZM90.4631 37.432C87.9031 37.432 85.5991 36.872 83.5511 35.752C81.5031 34.6 79.8871 32.984 78.7031 30.904C77.5511 28.824 76.9751 26.424 76.9751 23.704C76.9751 20.984 77.5671 18.584 78.7511 16.504C79.9671 14.424 81.6151 12.824 83.6951 11.704C85.7751 10.552 88.0951 9.976 90.6551 9.976C93.2151 9.976 95.5351 10.552 97.6151 11.704C99.6951 12.824 101.327 14.424 102.511 16.504C103.727 18.584 104.335 20.984 104.335 23.704C104.335 26.424 103.711 28.824 102.463 30.904C101.247 32.984 99.5831 34.6 97.4711 35.752C95.3911 36.872 93.0551 37.432 90.4631 37.432ZM90.4631 31.576C91.6791 31.576 92.8151 31.288 93.8711 30.712C94.9591 30.104 95.8231 29.208 96.4631 28.024C97.1031 26.84 97.4231 25.4 97.4231 23.704C97.4231 21.176 96.7511 19.24 95.4071 17.896C94.0951 16.52 92.4791 15.832 90.5591 15.832C88.6391 15.832 87.0231 16.52 85.7111 17.896C84.4311 19.24 83.7911 21.176 83.7911 23.704C83.7911 26.232 84.4151 28.184 85.6631 29.56C86.9431 30.904 88.5431 31.576 90.4631 31.576ZM118.673 37.432C116.113 37.432 113.809 36.872 111.761 35.752C109.713 34.6 108.097 32.984 106.913 30.904C105.761 28.824 105.185 26.424 105.185 23.704C105.185 20.984 105.777 18.584 106.961 16.504C108.177 14.424 109.825 12.824 111.905 11.704C113.985 10.552 116.305 9.976 118.865 9.976C121.425 9.976 123.745 10.552 125.825 11.704C127.905 12.824 129.537 14.424 130.721 16.504C131.937 18.584 132.545 20.984 132.545 23.704C132.545 26.424 131.921 28.824 130.673 30.904C129.457 32.984 127.793 34.6 125.681 35.752C123.601 36.872 121.265 37.432 118.673 37.432ZM118.673 31.576C119.889 31.576 121.025 31.288 122.081 30.712C123.169 30.104 124.033 29.208 124.673 28.024C125.313 26.84 125.633 25.4 125.633 23.704C125.633 21.176 124.961 19.24 123.617 17.896C122.305 16.52 120.689 15.832 118.769 15.832C116.849 15.832 115.233 16.52 113.921 17.896C112.641 19.24 112.001 21.176 112.001 23.704C112.001 26.232 112.625 28.184 113.873 29.56C115.153 30.904 116.753 31.576 118.673 31.576ZM141.794 1.48V37H135.074V1.48H141.794ZM151.793 14.296C152.657 13.016 153.841 11.976 155.345 11.176C156.881 10.376 158.625 9.976 160.577 9.976C162.849 9.976 164.897 10.536 166.721 11.656C168.577 12.776 170.033 14.376 171.089 16.456C172.177 18.504 172.721 20.888 172.721 23.608C172.721 26.328 172.177 28.744 171.089 30.856C170.033 32.936 168.577 34.552 166.721 35.704C164.897 36.856 162.849 37.432 160.577 37.432C158.593 37.432 156.849 37.048 155.345 36.28C153.873 35.48 152.689 34.456 151.793 33.208V37H145.073V1.48H151.793V14.296ZM165.857 23.608C165.857 22.008 165.521 20.632 164.849 19.48C164.209 18.296 163.345 17.4 162.257 16.792C161.201 16.184 160.049 15.88 158.801 15.88C157.585 15.88 156.433 16.2 155.345 16.84C154.289 17.448 153.425 18.344 152.753 19.528C152.113 20.712 151.793 22.104 151.793 23.704C151.793 25.304 152.113 26.696 152.753 27.88C153.425 29.064 154.289 29.976 155.345 30.616C156.433 31.224 157.585 31.528 158.801 31.528C160.049 31.528 161.201 31.208 162.257 30.568C163.345 29.928 164.209 29.016 164.849 27.832C165.521 26.648 165.857 25.24 165.857 23.608ZM187.013 37.432C184.453 37.432 182.149 36.872 180.101 35.752C178.053 34.6 176.437 32.984 175.253 30.904C174.101 28.824 173.525 26.424 173.525 23.704C173.525 20.984 174.117 18.584 175.301 16.504C176.517 14.424 178.165 12.824 180.245 11.704C182.325 10.552 184.645 9.976 187.205 9.976C189.765 9.976 192.085 10.552 194.165 11.704C196.245 12.824 197.877 14.424 199.061 16.504C200.277 18.584 200.885 20.984 200.885 23.704C200.885 26.424 200.261 28.824 199.013 30.904C197.797 32.984 196.133 34.6 194.021 35.752C191.941 36.872 189.605 37.432 187.013 37.432ZM187.013 31.576C188.229 31.576 189.365 31.288 190.421 30.712C191.509 30.104 192.373 29.208 193.013 28.024C193.653 26.84 193.973 25.4 193.973 23.704C193.973 21.176 193.301 19.24 191.957 17.896C190.645 16.52 189.029 15.832 187.109 15.832C185.189 15.832 183.573 16.52 182.261 17.896C180.981 19.24 180.341 21.176 180.341 23.704C180.341 26.232 180.965 28.184 182.213 29.56C183.493 30.904 185.093 31.576 187.013 31.576ZM218.102 37L212.63 28.744L207.782 37H200.582L209.27 23.656L200.486 10.408H208.07L213.494 18.616L218.39 10.408H225.59L216.854 23.656L225.686 37H218.102Z" fill="black"/>
<rect width="40" height="40" rx="5.57143" fill="black"/>
<path d="M11.25 10H12.5C13.4946 10 14.4484 10.3951 15.1517 11.0983C15.8549 11.8016 16.25 12.7554 16.25 13.75C16.25 12.7554 16.6451 11.8016 17.3483 11.0983C18.0516 10.3951 19.0054 10 20 10H21.25" stroke="white" stroke-width="2.5" stroke-linecap="round" stroke-linejoin="round"/>
<path d="M21.25 30H20C19.0054 30 18.0516 29.6049 17.3483 28.9017C16.6451 28.1984 16.25 27.2446 16.25 26.25C16.25 27.2446 15.8549 28.1984 15.1517 28.9017C14.4484 29.6049 13.4946 30 12.5 30H11.25" stroke="white" stroke-width="2.5" stroke-linecap="round" stroke-linejoin="round"/>
<path d="M11.25 25H10C9.33696 25 8.70107 24.7366 8.23223 24.2678C7.76339 23.7989 7.5 23.163 7.5 22.5V17.5C7.5 16.837 7.76339 16.2011 8.23223 15.7322C8.70107 15.2634 9.33696 15 10 15H11.25" stroke="white" stroke-width="2.5" stroke-linecap="round" stroke-linejoin="round"/>
<path d="M21.25 15H30C30.663 15 31.2989 15.2634 31.7678 15.7322C32.2366 16.2011 32.5 16.837 32.5 17.5V22.5C32.5 23.163 32.2366 23.7989 31.7678 24.2678C31.2989 24.7366 30.663 25 30 25H21.25" stroke="white" stroke-width="2.5" stroke-linecap="round" stroke-linejoin="round"/>
<path d="M16.25 13.75V26.25" stroke="white" stroke-width="2.5" stroke-linecap="round" stroke-linejoin="round"/>
</svg>
