<svg width="229" height="48" viewBox="0 0 229 48" fill="none" xmlns="http://www.w3.org/2000/svg">
<path d="M160.538 41.698C160.538 42.1087 160.439 42.4937 160.241 42.853C160.05 43.2123 159.746 43.502 159.328 43.722C158.917 43.942 158.397 44.052 157.766 44.052H156.479V47H154.939V39.322H157.766C158.36 39.322 158.866 39.4247 159.284 39.63C159.702 39.8353 160.014 40.1177 160.219 40.477C160.432 40.8363 160.538 41.2433 160.538 41.698ZM157.7 42.809C158.125 42.809 158.441 42.7137 158.646 42.523C158.851 42.325 158.954 42.05 158.954 41.698C158.954 40.95 158.536 40.576 157.7 40.576H156.479V42.809H157.7ZM165.899 45.537H162.841L162.335 47H160.718L163.479 39.311H165.272L168.033 47H166.405L165.899 45.537ZM165.481 44.305L164.37 41.093L163.259 44.305H165.481ZM170.143 39.322V44.074C170.143 44.5947 170.279 44.9943 170.55 45.273C170.822 45.5443 171.203 45.68 171.694 45.68C172.193 45.68 172.578 45.5443 172.849 45.273C173.121 44.9943 173.256 44.5947 173.256 44.074V39.322H174.807V44.063C174.807 44.7157 174.664 45.2693 174.378 45.724C174.1 46.1713 173.722 46.5087 173.245 46.736C172.776 46.9633 172.252 47.077 171.672 47.077C171.1 47.077 170.58 46.9633 170.11 46.736C169.648 46.5087 169.282 46.1713 169.01 45.724C168.739 45.2693 168.603 44.7157 168.603 44.063V39.322H170.143ZM177.395 45.779H179.925V47H175.855V39.322H177.395V45.779ZM189.014 39.322V47H187.474V43.733H184.185V47H182.645V39.322H184.185V42.479H187.474V39.322H189.014ZM194.798 45.537H191.74L191.234 47H189.617L192.378 39.311H194.171L196.932 47H195.304L194.798 45.537ZM194.38 44.305L193.269 41.093L192.158 44.305H194.38ZM199.064 45.779H201.594V47H197.524V39.322H199.064V45.779ZM203.673 45.779H206.203V47H202.133V39.322H203.673V45.779ZM208.282 40.565V42.49H210.867V43.711H208.282V45.746H211.197V47H206.742V39.311H211.197V40.565H208.282ZM213.674 39.322V44.074C213.674 44.5947 213.81 44.9943 214.081 45.273C214.353 45.5443 214.734 45.68 215.225 45.68C215.724 45.68 216.109 45.5443 216.38 45.273C216.652 44.9943 216.787 44.5947 216.787 44.074V39.322H218.338V44.063C218.338 44.7157 218.195 45.2693 217.909 45.724C217.631 46.1713 217.253 46.5087 216.776 46.736C216.307 46.9633 215.783 47.077 215.203 47.077C214.631 47.077 214.111 46.9633 213.641 46.736C213.179 46.5087 212.813 46.1713 212.541 45.724C212.27 45.2693 212.134 44.7157 212.134 44.063V39.322H213.674ZM223.984 47L222.323 44.415L220.816 47H219.078L221.498 43.128L219.045 39.322H220.816L222.477 41.896L223.973 39.322H225.711L223.302 43.183L225.755 47H223.984Z" fill="#0D0D0D"/>
<path d="M77.112 3.496V8.92H68.184V37H61.464V8.92H52.536V3.496H77.112ZM90.4631 37.432C87.9031 37.432 85.5991 36.872 83.5511 35.752C81.5031 34.6 79.8871 32.984 78.7031 30.904C77.5511 28.824 76.9751 26.424 76.9751 23.704C76.9751 20.984 77.5671 18.584 78.7511 16.504C79.9671 14.424 81.6151 12.824 83.6951 11.704C85.7751 10.552 88.0951 9.976 90.6551 9.976C93.2151 9.976 95.5351 10.552 97.6151 11.704C99.6951 12.824 101.327 14.424 102.511 16.504C103.727 18.584 104.335 20.984 104.335 23.704C104.335 26.424 103.711 28.824 102.463 30.904C101.247 32.984 99.5831 34.6 97.4711 35.752C95.3911 36.872 93.0551 37.432 90.4631 37.432ZM90.4631 31.576C91.6791 31.576 92.8151 31.288 93.8711 30.712C94.9591 30.104 95.8231 29.208 96.4631 28.024C97.1031 26.84 97.4231 25.4 97.4231 23.704C97.4231 21.176 96.7511 19.24 95.4071 17.896C94.0951 16.52 92.4791 15.832 90.5591 15.832C88.6391 15.832 87.0231 16.52 85.7111 17.896C84.4311 19.24 83.7911 21.176 83.7911 23.704C83.7911 26.232 84.4151 28.184 85.6631 29.56C86.9431 30.904 88.5431 31.576 90.4631 31.576ZM118.673 37.432C116.113 37.432 113.809 36.872 111.761 35.752C109.713 34.6 108.097 32.984 106.913 30.904C105.761 28.824 105.185 26.424 105.185 23.704C105.185 20.984 105.777 18.584 106.961 16.504C108.177 14.424 109.825 12.824 111.905 11.704C113.985 10.552 116.305 9.976 118.865 9.976C121.425 9.976 123.745 10.552 125.825 11.704C127.905 12.824 129.537 14.424 130.721 16.504C131.937 18.584 132.545 20.984 132.545 23.704C132.545 26.424 131.921 28.824 130.673 30.904C129.457 32.984 127.793 34.6 125.681 35.752C123.601 36.872 121.265 37.432 118.673 37.432ZM118.673 31.576C119.889 31.576 121.025 31.288 122.081 30.712C123.169 30.104 124.033 29.208 124.673 28.024C125.313 26.84 125.633 25.4 125.633 23.704C125.633 21.176 124.961 19.24 123.617 17.896C122.305 16.52 120.689 15.832 118.769 15.832C116.849 15.832 115.233 16.52 113.921 17.896C112.641 19.24 112.001 21.176 112.001 23.704C112.001 26.232 112.625 28.184 113.873 29.56C115.153 30.904 116.753 31.576 118.673 31.576ZM141.794 1.48V37H135.074V1.48H141.794ZM151.793 14.296C152.657 13.016 153.841 11.976 155.345 11.176C156.881 10.376 158.625 9.976 160.577 9.976C162.849 9.976 164.897 10.536 166.721 11.656C168.577 12.776 170.033 14.376 171.089 16.456C172.177 18.504 172.721 20.888 172.721 23.608C172.721 26.328 172.177 28.744 171.089 30.856C170.033 32.936 168.577 34.552 166.721 35.704C164.897 36.856 162.849 37.432 160.577 37.432C158.593 37.432 156.849 37.048 155.345 36.28C153.873 35.48 152.689 34.456 151.793 33.208V37H145.073V1.48H151.793V14.296ZM165.857 23.608C165.857 22.008 165.521 20.632 164.849 19.48C164.209 18.296 163.345 17.4 162.257 16.792C161.201 16.184 160.049 15.88 158.801 15.88C157.585 15.88 156.433 16.2 155.345 16.84C154.289 17.448 153.425 18.344 152.753 19.528C152.113 20.712 151.793 22.104 151.793 23.704C151.793 25.304 152.113 26.696 152.753 27.88C153.425 29.064 154.289 29.976 155.345 30.616C156.433 31.224 157.585 31.528 158.801 31.528C160.049 31.528 161.201 31.208 162.257 30.568C163.345 29.928 164.209 29.016 164.849 27.832C165.521 26.648 165.857 25.24 165.857 23.608ZM187.013 37.432C184.453 37.432 182.149 36.872 180.101 35.752C178.053 34.6 176.437 32.984 175.253 30.904C174.101 28.824 173.525 26.424 173.525 23.704C173.525 20.984 174.117 18.584 175.301 16.504C176.517 14.424 178.165 12.824 180.245 11.704C182.325 10.552 184.645 9.976 187.205 9.976C189.765 9.976 192.085 10.552 194.165 11.704C196.245 12.824 197.877 14.424 199.061 16.504C200.277 18.584 200.885 20.984 200.885 23.704C200.885 26.424 200.261 28.824 199.013 30.904C197.797 32.984 196.133 34.6 194.021 35.752C191.941 36.872 189.605 37.432 187.013 37.432ZM187.013 31.576C188.229 31.576 189.365 31.288 190.421 30.712C191.509 30.104 192.373 29.208 193.013 28.024C193.653 26.84 193.973 25.4 193.973 23.704C193.973 21.176 193.301 19.24 191.957 17.896C190.645 16.52 189.029 15.832 187.109 15.832C185.189 15.832 183.573 16.52 182.261 17.896C180.981 19.24 180.341 21.176 180.341 23.704C180.341 26.232 180.965 28.184 182.213 29.56C183.493 30.904 185.093 31.576 187.013 31.576ZM218.102 37L212.63 28.744L207.782 37H200.582L209.27 23.656L200.486 10.408H208.07L213.494 18.616L218.39 10.408H225.59L216.854 23.656L225.686 37H218.102Z" fill="#0D0D0D"/>
<rect width="40" height="40" rx="5.57143" fill="#0D0D0D"/>
<path d="M14.75 10.9817L25.25 16.99" stroke="white" stroke-width="2.33333" stroke-linecap="round" stroke-linejoin="round"/>
<path d="M30.5 15.3333C30.4996 14.9242 30.3916 14.5223 30.1868 14.168C29.982 13.8138 29.6877 13.5196 29.3333 13.315L21.1667 8.64833C20.812 8.44354 20.4096 8.33572 20 8.33572C19.5904 8.33572 19.188 8.44354 18.8333 8.64833L10.6667 13.315C10.3123 13.5196 10.018 13.8138 9.81321 14.168C9.60843 14.5223 9.50042 14.9242 9.5 15.3333V24.6667C9.50042 25.0758 9.60843 25.4777 9.81321 25.832C10.018 26.1862 10.3123 26.4804 10.6667 26.685L18.8333 31.3517C19.188 31.5565 19.5904 31.6643 20 31.6643C20.4096 31.6643 20.812 31.5565 21.1667 31.3517L29.3333 26.685C29.6877 26.4804 29.982 26.1862 30.1868 25.832C30.3916 25.4777 30.4996 25.0758 30.5 24.6667V15.3333Z" stroke="white" stroke-width="2.33333" stroke-linecap="round" stroke-linejoin="round"/>
<path d="M9.85001 14.1667L20 20L30.15 14.1667" stroke="white" stroke-width="2.33333" stroke-linecap="round" stroke-linejoin="round"/>
<path d="M20 31.6667V20" stroke="white" stroke-width="2.33333" stroke-linecap="round" stroke-linejoin="round"/>
</svg>
