<svg width="40" height="40" viewBox="0 0 40 40" fill="none" xmlns="http://www.w3.org/2000/svg">
<rect y="1" width="40" height="40" rx="5.57143" fill="#0D0D0D"/>
<path d="M30 9.75H23.75C23.0596 9.75 22.5 10.3096 22.5 11V17.25C22.5 17.9404 23.0596 18.5 23.75 18.5H30C30.6904 18.5 31.25 17.9404 31.25 17.25V11C31.25 10.3096 30.6904 9.75 30 9.75Z" stroke="white" stroke-width="2.5" stroke-linecap="round" stroke-linejoin="round"/>
<path d="M17.5 32.25V16C17.5 15.6685 17.3683 15.3505 17.1339 15.1161C16.8995 14.8817 16.5815 14.75 16.25 14.75H10C9.66848 14.75 9.35054 14.8817 9.11612 15.1161C8.8817 15.3505 8.75 15.6685 8.75 16V31C8.75 31.3315 8.8817 31.6495 9.11612 31.8839C9.35054 32.1183 9.66848 32.25 10 32.25H25C25.3315 32.25 25.6495 32.1183 25.8839 31.8839C26.1183 31.6495 26.25 31.3315 26.25 31V24.75C26.25 24.4185 26.1183 24.1005 25.8839 23.8661C25.6495 23.6317 25.3315 23.5 25 23.5H8.75" stroke="white" stroke-width="2.5" stroke-linecap="round" stroke-linejoin="round"/>
</svg>
